<?xml version="1.0" encoding="UTF-8" standalone="no"?>
<!-- Uploaded to: SVG Repo, www.svgrepo.com, Generator: SVG Repo Mixer Tools -->

<svg
   fill="#000000"
   height="800px"
   width="800px"
   version="1.1"
   id="Icons"
   viewBox="0 0 32 32"
   xml:space="preserve"
   sodipodi:docname="lock.svg"
   inkscape:version="1.4 (e7c3feb1, 2024-10-09)"
   xmlns:inkscape="http://www.inkscape.org/namespaces/inkscape"
   xmlns:sodipodi="http://sodipodi.sourceforge.net/DTD/sodipodi-0.dtd"
   xmlns="http://www.w3.org/2000/svg"
   xmlns:svg="http://www.w3.org/2000/svg"><defs
   id="defs1" /><sodipodi:namedview
   id="namedview1"
   pagecolor="#ffffff"
   bordercolor="#000000"
   borderopacity="0.25"
   inkscape:showpageshadow="2"
   inkscape:pageopacity="0.0"
   inkscape:pagecheckerboard="0"
   inkscape:deskcolor="#d1d1d1"
   inkscape:zoom="0.52"
   inkscape:cx="378.84615"
   inkscape:cy="594.23077"
   inkscape:window-width="1920"
   inkscape:window-height="1147"
   inkscape:window-x="0"
   inkscape:window-y="25"
   inkscape:window-maximized="1"
   inkscape:current-layer="Icons" />
<g
   id="g1"
   style="fill:#008000">
	<path
   d="M23,14.1V8.9C23,5.1,19.9,2,16,2S9,5.1,9,8.9v5.2c-2.3,0.5-4,2.5-4,4.9v5c0,2.8,2.2,5,5,5h12c2.8,0,5-2.2,5-5v-5   C27,16.6,25.3,14.6,23,14.1z M17,23.8V25c0,0.6-0.4,1-1,1s-1-0.4-1-1v-1.2c-1.2-0.4-2-1.5-2-2.8c0-1.7,1.3-3,3-3s3,1.3,3,3   C19,22.3,18.2,23.4,17,23.8z M21,14H11V8.9C11,6.2,13.2,4,16,4s5,2.2,5,4.9V14z"
   id="path1"
   style="fill:#008000" />
</g>
</svg>
